Genre:Animation | Adventure | Comedy
Language:English 
http://www.imdb.com/title/tt1667889/
Source:DvD Thanks!
Encoder:Tony

Format : AVI
Format/Info : Audio Video Interleave
File size : 1.23 GiB
Duration : 1h 27mn
Overall bit rate : 2 012 Kbps

Video
ID : 0
Format : MPEG-4 Visual
Format profile : Advanced Simple@L5
Format settings, BVOP : 1
Format settings, QPel : No
Format settings, GMC : No warppoints
Format settings, Matrix : Default (H.263)
Codec ID : XVID
Codec ID/Hint : XviD
Duration : 1h 27mn
Bit rate : 1 619 Kbps
Width : 640 pixels
Height : 272 pixels
Display aspect ratio : 2.35:1
Frame rate : 23.976 fps
Color space : YUV
Chroma subsampling : 4:2:0
Bit depth : 8 bits
Scan type : Progressive
Compression mode : Lossy
Bits/(Pixel*Frame) : 0.388
Stream size : 1 016 MiB (80%)
Writing library : XviD 1.2.1 (UTC 2008-12-04)

Audio
ID : 1
Format : AC-3
Format/Info : Audio Coding 3
Mode extension : CM (complete main)
Codec ID : 2000
Duration : 1h 27mn
Bit rate mode : Constant
Bit rate : 384 Kbps
Channel(s) : 6 channels
Channel positions : Front: L C R, Side: L R, LFE
Sampling rate : 48.0 KHz
Bit depth : 16 bits
Compression mode : Lossy
Stream size : 241 MiB (19%)
Alignment : Aligned on interleaves
Interleave, duration : 42 ms (1.00 video frame)
Interleave, preload duration : 512 ms


Plot:
Manny, Diego, and Sid embark upon another adventure after their continent is set adrift. Using an iceberg as a ship, they encounter sea creatures and battle pirates as they explore a new world.
 
http://imageshack.us/a/img832/5337/vlcsnap2012092620h40m19.png 
http://imageshack.us/a/img228/550/vlcsnap2012092620h40m43.png 
http://imageshack.us/a/img849/143/vlcsnap2012092620h41m05.png 
http://imageshack.us/a/img339/1469/vlcsnap2012092620h41m25.png